<svg version="1.1" id="Layer_1" xmlns="http://www.w3.org/2000/svg" xmlns:xlink="http://www.w3.org/1999/xlink" x="0px" y="0px"
	 width="100%" viewBox="0 0 1055 236" enable-background="new 0 0 1055 236" xml:space="preserve">
<path fill="#000000" opacity="1.000000" stroke="none" 
	d="
M702.000000,237.000000 
	C468.045166,237.000000 234.590347,237.000000 1.067765,237.000000 
	C1.067765,158.393784 1.067765,79.787483 1.067765,1.090595 
	C352.666656,1.090595 704.333313,1.090595 1055.965576,1.090595 
	C1055.965576,79.743073 1055.965576,158.371552 1055.965576,237.000000 
	C938.120667,237.000000 820.310364,237.000000 702.000000,237.000000 
M292.986542,67.203003 
	C293.661804,65.078682 294.313141,62.946407 295.016449,60.831425 
	C297.995575,51.872192 301.169189,42.970406 303.815430,33.914291 
	C304.295959,32.269760 302.641785,30.001448 301.973114,28.021093 
	C300.646881,29.554808 298.756805,30.875395 298.083771,32.655994 
	C292.767822,46.720306 288.680878,61.343880 282.278900,74.879265 
	C274.092682,92.187004 262.659180,107.478928 247.192245,119.332825 
	C238.293564,126.152771 228.371140,130.580353 217.186661,133.044876 
	C220.187073,120.779366 223.124603,108.978569 225.954422,97.151985 
	C229.770752,81.202431 233.561066,65.245827 237.156708,49.245991 
	C237.422226,48.064468 236.029449,46.510288 235.407608,45.129345 
	C234.268478,45.775578 232.905624,46.215759 232.060806,47.133041 
	C231.381180,47.870945 231.275513,49.172844 231.005386,50.247177 
	C227.369156,64.709183 223.659454,79.153557 220.152206,93.646881 
	C217.255142,105.618668 214.602036,117.649483 212.093536,128.555527 
	C207.181686,127.015900 202.453049,124.855553 197.540924,124.290619 
	C195.213486,124.022949 191.268082,126.233627 190.318863,128.340912 
	C188.960632,131.356216 190.802734,134.705902 194.465668,136.036575 
	C199.225830,137.765854 204.017365,139.408737 209.191544,141.228104 
	C207.532822,148.123581 205.569107,155.425903 204.040146,162.818161 
	C200.613327,179.386108 197.248962,195.971252 194.269791,212.622864 
	C193.822723,215.121582 195.590591,218.016602 196.333847,220.728271 
	C198.408829,219.803741 201.496841,219.422943 202.346176,217.840561 
	C204.069702,214.629486 204.582138,210.768402 205.593796,207.175247 
	C204.203552,206.957642 202.813309,206.740036 200.886566,206.438461 
	C205.622314,184.722229 210.351364,163.036743 215.390320,139.930099 
	C222.440399,151.561417 228.498627,162.144608 235.135727,172.351364 
	C242.739990,184.045395 249.626541,196.255920 260.193695,205.847321 
	C268.862701,213.715866 281.751678,213.681152 287.178741,208.203430 
	C288.090302,207.283386 288.112335,205.482025 288.545380,204.087891 
	C287.047302,203.868942 285.125916,202.939926 284.116913,203.541428 
	C274.538971,209.250992 266.920319,205.301376 260.879730,198.124908 
	C254.555710,190.611664 249.044739,182.361526 243.674393,174.110626 
	C235.951584,162.245377 228.677368,150.088135 221.287445,138.177643 
	C235.857422,135.016693 248.897156,126.993904 260.155914,116.215309 
	C273.602234,103.342415 283.183960,87.668442 291.704468,71.586800 
	C289.719177,76.570160 291.576935,80.246452 295.185822,83.832443 
	C298.478973,87.104683 300.273712,86.240662 302.099152,82.780930 
	C294.707123,74.893326 294.977722,72.264549 304.830780,67.728523 
	C314.744110,63.164761 325.036926,59.425392 335.754395,55.085495 
	C333.876343,63.109211 332.430206,69.950706 330.660583,76.707474 
	C327.207855,89.890327 323.359772,102.973938 320.158783,116.215508 
	C319.306061,119.742966 317.961273,121.152260 314.570618,122.236496 
	C305.902008,125.008507 297.379059,128.277634 288.955627,131.732590 
	C287.602509,132.287582 287.061584,134.822723 286.145203,136.442490 
	C287.816986,136.620209 289.686676,137.374969 291.128021,136.880737 
	C299.631012,133.965042 308.034332,130.758835 317.041321,127.440369 
	C314.521667,138.967422 311.848877,149.233673 310.116455,159.656250 
	C308.278442,170.714310 306.851685,181.890320 306.144684,193.071701 
	C305.536469,202.690552 313.671387,207.401917 322.250305,203.332809 
	C333.963898,197.776917 343.066711,188.920181 352.317596,180.204788 
	C355.911530,176.818909 359.556244,173.481827 363.282867,170.243408 
	C367.284821,166.765732 371.661102,163.680420 375.390869,159.941864 
	C377.759674,157.567429 377.829163,154.627304 373.783752,152.947784 
	C372.519806,153.811386 371.052704,154.566330 369.888855,155.647690 
	C359.362213,165.428238 349.092102,175.496902 338.313995,184.989716 
	C332.894562,189.762909 326.794678,193.874176 320.602386,197.624039 
	C315.716583,200.582733 312.931915,200.268829 312.135956,192.816208 
	C311.708862,188.817429 312.292786,184.603638 313.045532,180.604507 
	C316.236755,163.650467 319.557495,146.718231 323.151886,129.846390 
	C323.543823,128.006546 325.723602,125.815643 327.563660,125.158615 
	C332.373932,123.441032 337.411621,122.260483 342.438110,121.268456 
	C353.679810,119.049805 364.946716,116.931137 376.259460,115.122810 
	C378.567505,114.753876 380.809540,114.596367 380.824432,112.120918 
	C380.841187,109.336441 378.599426,108.523575 375.982086,108.999825 
	C364.868469,111.022034 353.731659,112.926254 342.648926,115.105385 
	C337.120453,116.192421 331.690186,117.778831 325.648499,119.280266 
	C328.602722,107.709175 331.277008,97.134331 334.005981,86.573616 
	C336.773682,75.863045 339.595398,65.166443 342.499878,54.056774 
	C354.226654,51.748653 366.175812,48.967361 378.269470,47.145359 
	C388.924561,45.540085 399.748993,45.080418 410.479309,43.933853 
	C412.473419,43.720783 414.375671,42.648312 416.320312,41.972473 
	C416.194214,41.149857 416.068085,40.327240 415.941956,39.504627 
	C404.011749,35.531609 392.025940,39.915291 380.187836,41.174232 
	C368.088074,42.461002 356.139130,45.166546 345.683411,46.980495 
	C343.988037,44.832874 342.668121,43.160873 341.073151,41.140415 
	C339.647034,42.911987 338.127563,43.930676 338.137146,44.934750 
	C338.183990,49.839165 334.851135,49.986843 331.280426,51.159077 
	C321.583801,54.342419 312.060425,58.100967 302.627197,62.014416 
	C299.149078,63.457352 296.115387,65.971519 292.986542,67.203003 
M840.722290,103.669350 
	C840.841614,103.802948 840.960999,103.936539 841.002808,104.907005 
	C840.668884,106.645805 840.336731,108.384941 840.000671,110.123322 
	C836.634827,127.535568 833.261292,144.946350 829.904663,162.360382 
	C827.931030,172.599609 825.749817,182.863632 828.072266,193.315674 
	C828.935730,197.201477 829.893555,201.320435 834.382568,203.001160 
	C838.617371,204.586700 841.774902,202.604019 844.615662,199.851334 
	C848.589844,196.000290 853.277161,192.575287 856.235901,188.039444 
	C869.685669,167.420395 883.065125,146.730255 895.624390,125.563988 
	C904.931763,109.878227 912.939453,93.421272 921.536560,77.288231 
	C926.226379,86.270164 929.351501,87.765976 932.959717,82.782036 
	C926.540710,75.434738 926.197510,73.081627 932.145081,69.480553 
	C942.823669,63.014984 954.660522,59.370102 966.844727,56.111519 
	C965.816040,59.562698 964.799255,62.576767 964.020935,65.651215 
	C959.647461,82.925873 955.433289,100.242233 950.844604,117.459061 
	C950.363586,119.263680 948.039978,121.151764 946.137451,121.904335 
	C937.516846,125.314201 928.747375,128.349396 920.016052,131.476486 
	C917.409790,132.409912 915.892029,134.186768 917.498047,136.615860 
	C918.041870,137.438416 920.932068,137.319138 922.453064,136.784973 
	C930.818176,133.847366 939.091125,130.647644 948.097473,127.275131 
	C945.241455,140.299484 942.236084,152.115311 940.156311,164.091843 
	C938.513184,173.554123 937.500244,183.194901 937.139526,192.791428 
	C936.777466,202.423752 944.089661,207.251556 952.635864,203.711853 
	C954.992920,202.735626 957.443848,201.633835 959.362915,200.011490 
	C969.493469,191.447449 979.473206,182.704819 989.492981,174.009933 
	C992.343018,171.536804 994.983276,167.195496 998.015930,166.915146 
	C1003.465332,166.411301 1004.305847,162.177658 1006.742371,159.305161 
	C1007.688110,158.190353 1007.186890,155.848221 1007.344788,154.065155 
	C1005.479919,154.301331 1003.173828,153.926682 1001.836304,154.892899 
	C998.390198,157.382233 995.325989,160.414627 992.192688,163.320007 
	C982.384644,172.414551 972.788696,181.748459 962.739685,190.566803 
	C959.056213,193.799164 954.447510,196.064926 950.047180,198.362152 
	C947.032959,199.935745 943.957642,199.740845 943.818970,195.288315 
	C943.652954,189.959488 943.261108,184.508972 944.120667,179.301590 
	C946.484558,164.981216 949.666748,150.796906 952.093811,136.485596 
	C953.420898,128.660934 956.783508,124.316635 965.274231,123.105179 
	C979.795837,121.033241 994.156006,117.811157 1008.553162,114.918831 
	C1009.815979,114.665138 1010.851257,113.279449 1011.992249,112.419533 
	C1010.750366,111.279289 1009.428284,109.086823 1008.280090,109.174423 
	C1002.136475,109.643173 995.968445,110.351585 989.935913,111.593971 
	C979.098755,113.825867 968.352051,116.496468 957.129944,119.084671 
	C957.129944,117.785065 956.899902,116.623138 957.164185,115.587334 
	C962.082397,96.310730 967.009033,77.035744 972.105408,57.805878 
	C972.594604,55.959896 972.983887,53.693035 976.367432,53.721050 
	C979.629822,53.748066 982.864624,51.987972 986.181885,51.437222 
	C997.697083,49.525463 1009.219177,47.622360 1020.785522,46.063740 
	C1028.240356,45.059166 1035.791992,44.786205 1043.264526,43.887951 
	C1044.716675,43.713402 1046.003662,42.165802 1047.366943,41.251545 
	C1047.223022,40.616913 1047.079224,39.982277 1046.935425,39.347645 
	C1035.037476,35.674976 1023.153137,39.947617 1011.379944,41.176895 
	C999.265137,42.441849 987.300232,45.143162 975.915039,47.104790 
	C974.839539,45.432652 973.837891,42.364578 972.615112,42.273739 
	C969.632874,42.052216 969.093628,44.682865 968.810974,47.448177 
	C968.698486,48.548595 966.556152,49.701233 965.119873,50.339870 
	C963.385864,51.110943 961.363159,51.205219 959.564392,51.863022 
	C949.415161,55.574482 939.295593,59.367203 929.052917,63.174232 
	C929.277893,62.381210 929.440002,60.969341 930.053040,59.792362 
	C932.866882,54.390293 935.851746,49.077347 938.667786,43.676418 
	C939.320618,42.424347 939.879395,40.949142 939.865784,39.582752 
	C939.856140,38.616875 939.010010,37.209461 938.165405,36.832539 
	C937.373474,36.479103 935.770813,36.896030 935.103210,37.557571 
	C934.123169,38.528603 933.646423,40.013020 932.974976,41.289127 
	C918.979553,67.888809 905.096558,94.548378 890.959473,121.072540 
	C879.362793,142.830276 867.208679,164.279938 851.960571,183.762329 
	C848.615173,188.036819 844.734802,191.954239 840.695190,195.584824 
	C839.545776,196.617950 836.966858,196.060471 835.043457,196.232407 
	C834.993286,190.821289 830.197998,186.049591 832.909363,180.252411 
	C833.379272,179.247650 833.783203,178.168961 833.971130,177.081802 
	C836.669250,161.475479 838.768982,145.741333 842.120117,130.277908 
	C847.292725,106.409409 853.440918,82.753860 858.884155,58.941414 
	C860.181152,53.267452 860.769348,47.338581 860.880615,41.511608 
	C861.000793,35.220203 855.981628,31.462154 850.581421,33.195709 
	C848.924866,33.727497 847.292419,34.600502 845.901123,35.651165 
	C831.851746,46.260689 822.303284,60.218178 817.220337,76.888451 
	C814.562195,85.606201 814.668396,94.550659 823.373657,100.912918 
	C827.735168,104.100571 837.056091,105.562943 840.722290,103.669350 
M803.858032,106.614395 
	C803.607483,100.728600 803.356934,94.842796 802.987915,88.070045 
	C803.051331,78.011497 800.440918,68.558914 796.071472,59.620434 
	C793.048523,53.436340 789.029053,48.010685 782.511780,44.877090 
	C773.873291,40.723534 762.504822,44.649815 755.940857,54.000282 
	C754.805298,55.617893 753.014893,56.908401 751.286377,57.951183 
	C746.943787,60.570953 741.731079,62.193962 738.171814,65.585663 
	C726.180664,77.012115 719.872375,91.949455 715.143860,107.404335 
	C711.530457,119.214645 708.173340,131.275192 706.536804,143.470596 
	C704.874451,155.858856 704.783020,168.585251 705.455322,181.085480 
	C705.669861,185.075882 704.152771,186.682297 702.105896,188.135239 
	C699.711304,189.835037 697.324951,191.944382 693.338684,190.215652 
	C685.972229,187.021011 681.607910,180.922821 677.084778,175.055649 
	C667.182190,162.210251 657.701050,149.040009 648.020752,135.965958 
	C649.248535,135.501389 651.368652,134.937195 653.265320,133.945633 
	C678.258728,120.879433 695.709473,101.382568 703.454590,73.964317 
	C706.055359,64.757500 706.930054,55.117226 701.806091,46.469952 
	C693.986450,33.273716 680.769714,31.597675 667.441101,33.220001 
	C650.529907,35.278397 634.686829,41.347721 620.630188,51.146839 
	C608.649902,59.498432 597.371521,68.876724 593.690613,83.955536 
	C591.987000,90.934395 591.855164,98.282791 596.052368,104.792549 
	C596.702332,105.800659 598.217285,106.251137 599.332214,106.959473 
	C599.887024,105.696419 600.768921,104.466362 600.900696,103.160606 
	C601.021606,101.962448 600.081421,100.689682 600.046570,99.437622 
	C599.908325,94.475685 599.105347,89.336670 600.085083,84.579742 
	C602.147400,74.567612 609.030579,67.678490 616.880981,61.563808 
	C634.277771,48.013500 653.487610,39.277065 675.886414,39.039551 
	C692.815125,38.860043 702.524963,51.716061 698.896179,68.437767 
	C695.365784,84.706734 687.034119,98.295616 676.041626,110.287804 
	C666.609070,120.578201 654.838440,127.573120 641.879700,131.530563 
	C637.794312,128.990204 633.986938,126.622749 629.969482,124.124680 
	C630.250061,123.563225 630.737183,122.910744 630.916260,122.182533 
	C634.290344,108.463127 637.687378,94.748871 640.949768,81.002724 
	C642.767151,73.344971 644.504639,65.659225 645.897278,57.917599 
	C646.161560,56.448776 644.636047,54.658001 643.936340,53.015804 
	C642.718140,54.111500 640.903564,54.990761 640.410400,56.349598 
	C639.487000,58.893856 639.490234,61.756123 638.827332,64.416145 
	C634.053223,83.571869 629.208740,102.710030 624.602051,120.998367 
	C620.705627,120.998367 616.969421,121.201027 613.265198,120.943573 
	C609.250061,120.664513 606.890808,123.032692 606.203552,126.176208 
	C605.521545,129.295547 605.163818,133.117371 609.283386,135.050064 
	C612.711426,136.658340 616.039307,138.480026 619.839111,140.426147 
	C616.816650,153.106491 613.445435,166.644241 610.389832,180.252884 
	C607.740601,192.051773 605.132690,203.879486 603.191528,215.805969 
	C602.606262,219.401733 601.072632,224.185837 605.743652,226.989914 
	C609.997620,224.896881 614.183044,219.696930 613.820923,215.889908 
	C613.644409,214.034760 611.752625,212.342804 610.013367,209.589172 
	C615.142578,187.229614 620.557373,163.625122 625.837097,140.609253 
	C629.223206,139.970825 631.803528,138.983871 634.313477,139.138458 
	C637.414978,139.329453 641.464966,139.478683 643.338135,141.383575 
	C649.018738,147.160400 653.923523,153.714478 658.989746,160.077850 
	C666.881897,169.990768 674.159851,180.446091 682.634216,189.825806 
	C690.004761,197.983734 697.128906,200.089615 707.319702,191.929001 
	C709.244202,195.766556 711.025818,199.638306 713.082520,203.357956 
	C718.247864,212.699615 730.616028,219.756897 743.340210,215.274734 
	C754.953796,211.183792 763.845825,203.806107 771.334534,194.243042 
	C783.532959,178.665665 790.961243,160.744156 796.812805,142.161804 
	C798.661316,136.291489 800.748413,130.326843 800.316284,123.634964 
	C799.964294,118.182922 802.072449,112.572044 803.858032,106.614395 
M502.959412,174.368866 
	C503.882843,169.121140 504.936890,163.892395 505.702118,158.621704 
	C507.217560,148.183472 508.659912,137.732834 509.964447,127.266396 
	C510.812683,120.460815 511.093781,113.577530 512.113892,106.802063 
	C513.528748,97.404678 515.083313,88.043297 512.974121,78.585548 
	C510.393738,67.014931 506.507874,64.451767 497.814850,66.329941 
	C493.151520,67.337479 488.605682,71.095047 485.055084,74.656670 
	C471.194519,88.560326 461.552063,105.529671 453.207031,122.991089 
	C443.938263,142.385422 436.230408,162.525742 428.383850,181.063354 
	C429.101349,176.672653 429.792572,170.769608 431.061005,164.993317 
	C434.921509,147.413101 438.973389,129.874542 443.011230,112.333694 
	C446.292755,98.078506 449.903687,83.894127 452.901459,69.580521 
	C454.723938,60.878525 456.157379,52.029644 456.848480,43.175159 
	C457.493103,34.916924 451.037872,31.102900 443.730103,34.762264 
	C441.584991,35.836433 439.326874,36.783173 437.396759,38.172153 
	C426.682068,45.882767 418.001923,55.667645 410.355713,66.268600 
	C398.762573,82.341545 388.076538,98.871574 384.874084,119.147278 
	C382.173096,136.248398 393.114258,145.676895 407.577484,144.919052 
	C408.742889,144.857986 409.846954,143.625702 410.979523,142.937683 
	C410.096863,141.664520 409.427094,140.112076 408.255035,139.218506 
	C407.500702,138.643433 406.008514,139.020355 404.846527,138.998352 
	C395.770874,138.826370 388.378204,130.700745 390.139832,121.781044 
	C391.526611,114.759674 393.706787,107.769958 396.503632,101.177307 
	C402.976532,85.919579 412.227356,72.223274 423.019684,59.766827 
	C428.896332,52.983971 436.183929,47.386635 443.096313,41.564678 
	C444.770996,40.154194 447.478241,39.969727 449.710693,39.221493 
	C450.141785,41.227913 450.853699,43.223190 450.933899,45.243538 
	C451.037476,47.852448 450.957336,50.552162 450.398499,53.089935 
	C447.358032,66.896927 444.089233,80.653450 441.009399,94.451981 
	C438.167389,107.184914 435.536224,119.964996 432.677185,132.693985 
	C430.563965,142.102646 428.053253,151.424057 426.041077,160.852936 
	C422.676636,176.618500 419.424774,192.411545 416.423645,208.249527 
	C415.215088,214.627609 414.705963,221.146545 414.100006,227.622116 
	C414.001953,228.669891 414.843170,230.486694 415.648102,230.755173 
	C416.535767,231.051239 418.145294,230.236206 418.960144,229.423630 
	C419.919891,228.466583 420.569763,227.059341 421.000061,225.732513 
	C425.047516,213.251724 428.581085,200.584732 433.117126,188.286545 
	C439.704193,170.427689 446.580200,152.649445 454.110382,135.171753 
	C461.570282,117.857208 470.910980,101.428711 482.415955,86.469360 
	C486.526978,81.123993 492.364014,76.980537 497.847595,72.867622 
	C500.725494,70.709038 504.786835,71.056076 505.820587,75.154480 
	C507.158417,80.458191 507.898956,86.062538 507.850128,91.528091 
	C507.789062,98.360992 506.755127,105.194832 505.972656,112.008919 
	C505.193909,118.790207 504.224060,125.549904 503.306610,132.314819 
	C501.888123,142.774414 500.451202,153.231522 499.005981,163.687469 
	C498.094421,170.282440 497.042419,176.860458 496.276184,183.471909 
	C495.934906,186.416428 495.662140,189.534134 496.306183,192.356949 
	C496.621857,193.740646 500.065002,195.847565 500.446747,195.545685 
	C502.883911,193.618500 505.377075,191.394562 506.848755,188.716995 
	C508.332703,186.017075 507.895233,183.347488 503.468231,184.098541 
	C502.786591,184.214188 501.202820,183.115616 501.237091,182.671265 
	C501.434174,180.117249 501.993134,177.591171 502.959412,174.368866 
M125.275444,58.009342 
	C120.855774,60.496201 115.730652,62.235947 112.152817,65.614334 
	C102.605385,74.629547 96.584526,86.215576 92.112747,98.354462 
	C82.999893,123.091751 77.492676,148.531052 78.928329,175.170090 
	C79.441513,184.692474 81.545029,193.678238 86.043121,202.014526 
	C91.044952,211.284363 102.525772,218.215073 110.574333,216.959442 
	C120.759880,215.370422 129.458801,210.551819 136.864990,203.580399 
	C152.729279,188.647385 161.825592,169.429779 168.614594,149.358612 
	C175.263824,129.700699 179.347305,109.437508 177.220688,88.211639 
	C176.071960,76.746140 173.802063,65.937859 167.952408,56.084274 
	C160.919754,44.237930 149.721512,37.719673 135.610825,48.215389 
	C132.000198,50.901020 129.220947,54.704380 125.275444,58.009342 
M577.030090,109.733612 
	C577.210022,109.453163 577.494385,109.193428 577.554749,108.889275 
	C579.541443,98.872978 581.302856,88.806862 583.530579,78.844925 
	C585.901733,68.241478 588.610474,57.708687 591.456909,47.222427 
	C591.812927,45.910744 593.747681,44.593513 595.226013,44.095703 
	C601.596741,41.950336 608.054810,40.057068 614.509338,38.168747 
	C627.443115,34.384865 640.432739,30.787191 653.326172,26.871771 
	C661.135925,24.500149 668.854065,21.798033 676.494080,18.927124 
	C677.652344,18.491890 678.161377,16.328981 678.970703,14.965213 
	C677.512085,14.567197 675.853333,13.500871 674.624146,13.868999 
	C644.704773,22.829967 614.769226,31.746576 584.973633,41.107296 
	C568.333374,46.335068 551.846313,52.095284 535.488464,58.151043 
	C530.317139,60.065498 525.731018,63.626377 521.031616,66.672188 
	C520.402832,67.079720 520.155151,69.530556 520.645447,69.939919 
	C522.192383,71.231514 524.125427,72.134270 526.036926,72.842270 
	C526.349670,72.958107 527.315125,71.331306 527.968994,70.502090 
	C529.070679,69.104874 529.877808,67.004463 531.309021,66.415840 
	C539.441162,63.071148 547.675232,59.956440 555.963745,57.014648 
	C565.436462,53.652588 575.002441,50.553448 585.355896,47.060738 
	C572.947998,101.741943 560.596985,156.172455 548.163513,210.966644 
	C545.373047,208.268539 542.794983,207.748077 542.159058,211.388321 
	C541.261780,216.524887 541.153503,221.830765 541.130005,227.066162 
	C541.124207,228.359039 542.495605,230.171127 543.713318,230.770401 
	C544.484497,231.149902 546.381409,229.974426 547.340759,229.048172 
	C548.466187,227.961563 549.523926,226.496033 549.920471,225.010544 
	C554.346436,208.428375 558.974121,191.889008 562.883545,175.182739 
	C567.904175,153.728226 572.318970,132.131912 577.030090,109.733612 
M64.506538,75.994743 
	C54.295383,120.966385 44.084229,165.938019 33.800533,211.229156 
	C32.157082,210.499496 30.853970,209.920929 28.866356,209.038467 
	C28.271317,210.605377 27.214951,212.231369 27.099939,213.921417 
	C26.828979,217.903091 26.709135,221.947678 27.138514,225.900497 
	C27.331028,227.672775 28.987103,229.286072 29.979034,230.971512 
	C31.346495,229.796814 33.404202,228.881256 33.959675,227.401718 
	C36.145687,221.579132 38.189014,215.661179 39.688400,209.630219 
	C44.925995,188.563110 50.065521,167.468994 54.954056,146.318512 
	C59.376274,127.185593 63.418137,107.964783 67.633972,88.784111 
	C70.086678,77.625099 72.165833,66.362274 75.201912,55.363926 
	C76.408836,50.991745 75.620163,44.858158 82.788445,43.481140 
	C88.884468,42.310097 94.718910,39.820030 100.710510,38.054092 
	C114.550308,33.975014 128.433777,30.043497 142.261902,25.925741 
	C148.867935,23.958590 155.447876,21.862589 161.896820,19.444174 
	C163.178238,18.963629 164.778214,16.528816 164.518768,15.382952 
	C164.102219,13.543328 162.435852,12.682129 159.935532,13.867083 
	C156.203217,15.635909 152.150330,16.777292 148.166214,17.957283 
	C132.183868,22.690844 116.152977,27.261263 100.184151,32.039444 
	C88.369690,35.574558 76.538986,39.089279 64.866783,43.057964 
	C47.589577,48.932411 30.399845,55.075825 13.295466,61.434490 
	C10.667996,62.411270 8.386576,64.914391 6.611092,67.223640 
	C6.080236,67.914085 7.486733,70.645676 8.621653,71.871979 
	C9.382375,72.693954 11.746693,73.176392 12.463859,72.617622 
	C13.462697,71.839386 13.592298,69.945511 14.093928,68.529129 
	C13.775696,68.140587 13.457464,67.752045 13.139233,67.363503 
	C32.257675,60.568672 51.376122,53.773838 70.946556,46.818363 
	C70.407600,49.446945 69.948982,51.738338 69.466896,54.024788 
	C67.974068,61.105061 66.472305,68.183449 64.506538,75.994743 
z"/>
<path fill="#FDFDFD" opacity="1.000000" stroke="none" 
	d="
M803.089722,107.031601 
	C802.072449,112.572044 799.964294,118.182922 800.316284,123.634964 
	C800.748413,130.326843 798.661316,136.291489 796.812805,142.161804 
	C790.961243,160.744156 783.532959,178.665665 771.334534,194.243042 
	C763.845825,203.806107 754.953796,211.183792 743.340210,215.274734 
	C730.616028,219.756897 718.247864,212.699615 713.082520,203.357956 
	C711.025818,199.638306 709.244202,195.766556 707.319702,191.929001 
	C697.128906,200.089615 690.004761,197.983734 682.634216,189.825806 
	C674.159851,180.446091 666.881897,169.990768 658.989746,160.077850 
	C653.923523,153.714478 649.018738,147.160400 643.338135,141.383575 
	C641.464966,139.478683 637.414978,139.329453 634.313477,139.138458 
	C631.803528,138.983871 629.223206,139.970825 625.837097,140.609253 
	C620.557373,163.625122 615.142578,187.229614 610.013367,209.589172 
	C611.752625,212.342804 613.644409,214.034760 613.820923,215.889908 
	C614.183044,219.696930 609.997620,224.896881 605.743652,226.989914 
	C601.072632,224.185837 602.606262,219.401733 603.191528,215.805969 
	C605.132690,203.879486 607.740601,192.051773 610.389832,180.252884 
	C613.445435,166.644241 616.816650,153.106491 619.839111,140.426147 
	C616.039307,138.480026 612.711426,136.658340 609.283386,135.050064 
	C605.163818,133.117371 605.521545,129.295547 606.203552,126.176208 
	C606.890808,123.032692 609.250061,120.664513 613.265198,120.943573 
	C616.969421,121.201027 620.705627,120.998367 624.602051,120.998367 
	C629.208740,102.710030 634.053223,83.571869 638.827332,64.416145 
	C639.490234,61.756123 639.487000,58.893856 640.410400,56.349598 
	C640.903564,54.990761 642.718140,54.111500 643.936340,53.015793 
	C644.636047,54.658001 646.161560,56.448776 645.897278,57.917599 
	C644.504639,65.659225 642.767151,73.344971 640.949768,81.002724 
	C637.687378,94.748871 634.290344,108.463127 630.916260,122.182533 
	C630.737183,122.910744 630.250061,123.563225 629.969482,124.124680 
	C633.986938,126.622749 637.794312,128.990204 641.879700,131.530563 
	C654.838440,127.573120 666.609070,120.578201 676.041626,110.287804 
	C687.034119,98.295616 695.365784,84.706734 698.896179,68.437767 
	C702.524963,51.716061 692.815125,38.860043 675.886414,39.039551 
	C653.487610,39.277065 634.277771,48.013500 616.880981,61.563808 
	C609.030579,67.678490 602.147400,74.567612 600.085083,84.579742 
	C599.105347,89.336670 599.908325,94.475685 600.046570,99.437622 
	C600.081421,100.689682 601.021606,101.962448 600.900696,103.160606 
	C600.768921,104.466362 599.887024,105.696419 599.332214,106.959473 
	C598.217285,106.251137 596.702332,105.800659 596.052368,104.792549 
	C591.855164,98.282791 591.987000,90.934395 593.690613,83.955536 
	C597.371521,68.876724 608.649902,59.498432 620.630188,51.146839 
	C634.686829,41.347721 650.529907,35.278397 667.441101,33.220001 
	C680.769714,31.597675 693.986450,33.273716 701.806091,46.469952 
	C706.930054,55.117226 706.055359,64.757500 703.454590,73.964317 
	C695.709473,101.382568 678.258728,120.879433 653.265320,133.945633 
	C651.368652,134.937195 649.248535,135.501389 648.020752,135.965958 
	C657.701050,149.040009 667.182190,162.210251 677.084778,175.055649 
	C681.607910,180.922821 685.972229,187.021011 693.338684,190.215652 
	C697.324951,191.944382 699.711304,189.835037 702.105896,188.135239 
	C704.152771,186.682297 705.669861,185.075882 705.455322,181.085480 
	C704.783020,168.585251 704.874451,155.858856 706.536804,143.470596 
	C708.173340,131.275192 711.530457,119.214645 715.143860,107.404335 
	C719.872375,91.949455 726.180664,77.012115 738.171814,65.585663 
	C741.731079,62.193962 746.943787,60.570953 751.286377,57.951183 
	C753.014893,56.908401 754.805298,55.617893 755.940857,54.000282 
	C762.504822,44.649815 773.873291,40.723534 782.511780,44.877090 
	C789.029053,48.010685 793.048523,53.436340 796.071472,59.620434 
	C800.440918,68.558914 803.051331,78.011497 802.731995,88.796173 
	C802.680603,95.358727 802.885193,101.195168 803.089722,107.031601 
M745.509827,71.990181 
	C746.317749,70.078781 747.125732,68.167381 747.933655,66.255981 
	C739.757751,71.587929 734.043823,78.701378 729.963501,87.213814 
	C717.692871,112.813278 710.406982,139.520538 710.901672,168.175583 
	C711.069336,177.884354 711.948914,187.223892 715.930908,196.215393 
	C720.278687,206.033112 729.215637,213.672501 742.510803,209.201218 
	C754.135132,205.291794 761.663940,196.846207 768.659912,187.735443 
	C781.621216,170.856293 788.892212,151.186142 793.728638,130.838409 
	C796.977783,117.168808 798.876770,103.121025 797.233093,88.707588 
	C796.060730,78.426537 794.428955,68.555176 789.123230,59.627525 
	C781.603088,46.973736 772.020935,45.528091 761.703003,56.146687 
	C761.313660,56.547424 761.700745,58.394157 762.294189,58.898335 
	C763.213806,59.679699 765.063965,59.544529 765.729858,60.407394 
	C766.967957,62.011745 767.636780,64.055420 768.542603,65.916176 
	C766.470154,65.852303 764.059448,66.452408 762.388306,65.600937 
	C757.226013,62.970661 756.632568,63.038990 753.961548,68.210068 
	C745.898315,83.820244 741.942444,100.614594 738.893188,117.784195 
	C735.502441,136.876251 733.146851,156.022964 732.965942,175.424606 
	C732.952881,176.824936 732.752686,178.478134 731.987244,179.546494 
	C731.193848,180.653915 729.493225,181.926224 728.400208,181.757858 
	C727.448975,181.611343 726.120422,179.553604 726.125671,178.345505 
	C726.144165,174.100327 726.708313,169.860107 726.986389,165.612839 
	C727.373657,159.699326 727.338623,153.734695 728.113770,147.875183 
	C729.494324,137.438538 731.382690,127.069878 732.992859,116.662590 
	C735.335266,101.522278 739.205566,86.806244 745.509827,71.990181 
M614.899658,127.001007 
	C613.672668,127.309982 612.445679,127.618965 611.218628,127.927948 
	C611.135010,128.444534 611.051392,128.961121 610.967712,129.477707 
	C614.202515,131.003021 617.437256,132.528320 621.017700,134.216614 
	C621.831848,131.866760 622.425598,130.153122 623.258667,127.748573 
	C620.442200,127.468582 618.092834,127.235031 614.899658,127.001007 
z"/>
<path fill="#FDFDFD" opacity="1.000000" stroke="none" 
	d="
M840.394775,103.243256 
	C837.056091,105.562943 827.735168,104.100571 823.373657,100.912918 
	C814.668396,94.550659 814.562195,85.606201 817.220337,76.888451 
	C822.303284,60.218178 831.851746,46.260689 845.901123,35.651165 
	C847.292419,34.600502 848.924866,33.727497 850.581421,33.195709 
	C855.981628,31.462154 861.000793,35.220203 860.880615,41.511608 
	C860.769348,47.338581 860.181152,53.267452 858.884155,58.941414 
	C853.440918,82.753860 847.292725,106.409409 842.120117,130.277908 
	C838.768982,145.741333 836.669250,161.475479 833.971130,177.081802 
	C833.783203,178.168961 833.379272,179.247650 832.909363,180.252411 
	C830.197998,186.049591 834.993286,190.821289 835.043457,196.232422 
	C836.966858,196.060471 839.545776,196.617950 840.695190,195.584824 
	C844.734802,191.954239 848.615173,188.036819 851.960571,183.762329 
	C867.208679,164.279938 879.362793,142.830276 890.959473,121.072540 
	C905.096558,94.548378 918.979553,67.888809 932.974976,41.289127 
	C933.646423,40.013020 934.123169,38.528603 935.103210,37.557571 
	C935.770813,36.896030 937.373474,36.479103 938.165405,36.832539 
	C939.010010,37.209461 939.856140,38.616875 939.865784,39.582752 
	C939.879395,40.949142 939.320618,42.424347 938.667786,43.676418 
	C935.851746,49.077347 932.866882,54.390293 930.053040,59.792362 
	C929.440002,60.969341 929.277893,62.381210 929.052917,63.174232 
	C939.295593,59.367203 949.415161,55.574482 959.564392,51.863022 
	C961.363159,51.205219 963.385864,51.110943 965.119873,50.339870 
	C966.556152,49.701233 968.698486,48.548595 968.810974,47.448177 
	C969.093628,44.682865 969.632874,42.052216 972.615112,42.273739 
	C973.837891,42.364578 974.839539,45.432652 975.915039,47.104790 
	C987.300232,45.143162 999.265137,42.441849 1011.379944,41.176895 
	C1023.153137,39.947617 1035.037476,35.674976 1046.935425,39.347645 
	C1047.079224,39.982277 1047.223022,40.616913 1047.366943,41.251545 
	C1046.003662,42.165802 1044.716675,43.713402 1043.264526,43.887951 
	C1035.791992,44.786205 1028.240356,45.059166 1020.785522,46.063740 
	C1009.219177,47.622360 997.697083,49.525463 986.181885,51.437222 
	C982.864624,51.987972 979.629822,53.748066 976.367432,53.721050 
	C972.983887,53.693035 972.594604,55.959896 972.105408,57.805878 
	C967.009033,77.035744 962.082397,96.310730 957.164185,115.587334 
	C956.899902,116.623138 957.129944,117.785065 957.129944,119.084671 
	C968.352051,116.496468 979.098755,113.825867 989.935913,111.593971 
	C995.968445,110.351585 1002.136475,109.643173 1008.280090,109.174423 
	C1009.428284,109.086823 1010.750366,111.279289 1011.992249,112.419540 
	C1010.851257,113.279449 1009.815979,114.665138 1008.553162,114.918831 
	C994.156006,117.811157 979.795837,121.033241 965.274231,123.105179 
	C956.783508,124.316635 953.420898,128.660934 952.093811,136.485596 
	C949.666748,150.796906 946.484558,164.981216 944.120667,179.301590 
	C943.261108,184.508972 943.652954,189.959488 943.818970,195.288315 
	C943.957642,199.740845 947.032959,199.935745 950.047180,198.362152 
	C954.447510,196.064926 959.056213,193.799164 962.739685,190.566803 
	C972.788696,181.748459 982.384644,172.414551 992.192688,163.320007 
	C995.325989,160.414627 998.390198,157.382233 1001.836304,154.892899 
	C1003.173828,153.926682 1005.479919,154.301331 1007.344727,154.065155 
	C1007.186890,155.848221 1007.688110,158.190353 1006.742371,159.305161 
	C1004.305847,162.177658 1003.465332,166.411301 998.015930,166.915146 
	C994.983276,167.195496 992.343018,171.536804 989.492981,174.009933 
	C979.473206,182.704819 969.493469,191.447449 959.362915,200.011490 
	C957.443848,201.633835 954.992920,202.735626 952.635864,203.711853 
	C944.089661,207.251556 936.777466,202.423752 937.139526,192.791428 
	C937.500244,183.194901 938.513184,173.554123 940.156311,164.091843 
	C942.236084,152.115311 945.241455,140.299484 948.097473,127.275131 
	C939.091125,130.647644 930.818176,133.847366 922.453064,136.784973 
	C920.932068,137.319138 918.041870,137.438416 917.498047,136.615860 
	C915.892029,134.186768 917.409790,132.409912 920.016052,131.476486 
	C928.747375,128.349396 937.516846,125.314201 946.137451,121.904335 
	C948.039978,121.151764 950.363586,119.263680 950.844604,117.459061 
	C955.433289,100.242233 959.647461,82.925873 964.020935,65.651215 
	C964.799255,62.576767 965.816040,59.562698 966.844727,56.111519 
	C954.660522,59.370102 942.823669,63.014984 932.145081,69.480553 
	C926.197510,73.081627 926.540710,75.434738 932.959717,82.782036 
	C929.351501,87.765976 926.226379,86.270164 921.536560,77.288231 
	C912.939453,93.421272 904.931763,109.878227 895.624390,125.563988 
	C883.065125,146.730255 869.685669,167.420395 856.235901,188.039444 
	C853.277161,192.575287 848.589844,196.000290 844.615662,199.851334 
	C841.774902,202.604019 838.617371,204.586700 834.382568,203.001160 
	C829.893555,201.320435 828.935730,197.201477 828.072266,193.315674 
	C825.749817,182.863632 827.931030,172.599609 829.904663,162.360382 
	C833.261292,144.946350 836.634827,127.535568 840.000671,110.123322 
	C840.336731,108.384941 840.668884,106.645805 841.403198,104.308975 
	C841.880798,102.387527 841.744324,101.009331 842.067444,99.748985 
	C846.283875,83.304115 850.781372,66.926636 854.658813,50.403294 
	C855.494385,46.842781 856.453613,42.404755 853.373535,38.778957 
	C846.334534,42.049686 841.166870,46.758530 836.813721,52.617493 
	C829.849243,61.991257 823.412231,71.742607 822.166748,83.567383 
	C821.221924,92.536705 824.200378,96.773842 833.736694,98.014938 
	C835.482849,98.242188 837.500366,98.242935 838.835022,99.159851 
	C839.823547,99.838928 839.907715,101.834274 840.394775,103.243256 
z"/>
<path fill="#FCFDFC" opacity="1.000000" stroke="none" 
	d="
M502.694397,174.712250 
	C501.993134,177.591171 501.434174,180.117249 501.237091,182.671265 
	C501.202820,183.115616 502.786591,184.214188 503.468231,184.098541 
	C507.895233,183.347488 508.332703,186.017075 506.848755,188.716995 
	C505.377075,191.394562 502.883911,193.618500 500.446747,195.545685 
	C500.065002,195.847565 496.621857,193.740646 496.306183,192.356949 
	C495.662140,189.534134 495.934906,186.416428 496.276184,183.471909 
	C497.042419,176.860458 498.094421,170.282440 499.005981,163.687469 
	C500.451202,153.231522 501.888123,142.774414 503.306610,132.314819 
	C504.224060,125.549904 505.193909,118.790207 505.972656,112.008919 
	C506.755127,105.194832 507.789062,98.360992 507.850128,91.528091 
	C507.898956,86.062538 507.158417,80.458191 505.820587,75.154480 
	C504.786835,71.056076 500.725494,70.709038 497.847595,72.867622 
	C492.364014,76.980537 486.526978,81.123993 482.415955,86.469360 
	C470.910980,101.428711 461.570282,117.857208 454.110382,135.171753 
	C446.580200,152.649445 439.704193,170.427689 433.117126,188.286545 
	C428.581085,200.584732 425.047516,213.251724 421.000061,225.732513 
	C420.569763,227.059341 419.919891,228.466583 418.960144,229.423630 
	C418.145294,230.236206 416.535767,231.051239 415.648102,230.755173 
	C414.843170,230.486694 414.001953,228.669891 414.100006,227.622116 
	C414.705963,221.146545 415.215088,214.627609 416.423645,208.249527 
	C419.424774,192.411545 422.676636,176.618500 426.041077,160.852936 
	C428.053253,151.424057 430.563965,142.102646 432.677185,132.693985 
	C435.536224,119.964996 438.167389,107.184914 441.009399,94.451981 
	C444.089233,80.653450 447.358032,66.896927 450.398499,53.089935 
	C450.957336,50.552162 451.037476,47.852448 450.933899,45.243538 
	C450.853699,43.223190 450.141785,41.227913 449.710693,39.221489 
	C447.478241,39.969727 444.770996,40.154194 443.096313,41.564678 
	C436.183929,47.386635 428.896332,52.983971 423.019684,59.766827 
	C412.227356,72.223274 402.976532,85.919579 396.503632,101.177307 
	C393.706787,107.769958 391.526611,114.759674 390.139832,121.781044 
	C388.378204,130.700745 395.770874,138.826370 404.846527,138.998352 
	C406.008514,139.020355 407.500702,138.643433 408.255035,139.218506 
	C409.427094,140.112076 410.096863,141.664520 410.979523,142.937683 
	C409.846954,143.625702 408.742889,144.857986 407.577484,144.919052 
	C393.114258,145.676895 382.173096,136.248398 384.874084,119.147278 
	C388.076538,98.871574 398.762573,82.341545 410.355713,66.268600 
	C418.001923,55.667645 426.682068,45.882767 437.396759,38.172153 
	C439.326874,36.783173 441.584991,35.836433 443.730103,34.762264 
	C451.037872,31.102900 457.493103,34.916924 456.848480,43.175159 
	C456.157379,52.029644 454.723938,60.878525 452.901459,69.580521 
	C449.903687,83.894127 446.292755,98.078506 443.011230,112.333694 
	C438.973389,129.874542 434.921509,147.413101 431.061005,164.993317 
	C429.792572,170.769608 429.101349,176.672653 428.383850,181.063354 
	C436.230408,162.525742 443.938263,142.385422 453.207031,122.991089 
	C461.552063,105.529671 471.194519,88.560326 485.055084,74.656670 
	C488.605682,71.095047 493.151520,67.337479 497.814850,66.329941 
	C506.507874,64.451767 510.393738,67.014931 512.974121,78.585548 
	C515.083313,88.043297 513.528748,97.404678 512.113892,106.802063 
	C511.093781,113.577530 510.812683,120.460815 509.964447,127.266396 
	C508.659912,137.732834 507.217560,148.183472 505.702118,158.621704 
	C504.936890,163.892395 503.882843,169.121140 502.694397,174.712250 
z"/>
<path fill="#FDFDFD" opacity="1.000000" stroke="none" 
	d="
M125.667595,58.001778 
	C129.220947,54.704380 132.000198,50.901020 135.610825,48.215389 
	C149.721512,37.719673 160.919754,44.237930 167.952408,56.084274 
	C173.802063,65.937859 176.071960,76.746140 177.220688,88.211639 
	C179.347305,109.437508 175.263824,129.700699 168.614594,149.358612 
	C161.825592,169.429779 152.729279,188.647385 136.864990,203.580399 
	C129.458801,210.551819 120.759880,215.370422 110.574333,216.959442 
	C102.525772,218.215073 91.044952,211.284363 86.043121,202.014526 
	C81.545029,193.678238 79.441513,184.692474 78.928329,175.170090 
	C77.492676,148.531052 82.999893,123.091751 92.112747,98.354462 
	C96.584526,86.215576 102.605385,74.629547 112.152817,65.614334 
	C115.730652,62.235947 120.855774,60.496201 125.667595,58.001778 
M128.044052,67.556313 
	C126.354813,71.365379 124.488647,75.107124 123.008888,78.995903 
	C118.191467,91.656044 114.598015,104.643242 112.960930,118.131699 
	C111.334976,131.528458 109.643089,144.917191 107.993690,158.311127 
	C107.302582,163.923264 106.663940,169.541870 105.964806,175.152969 
	C105.725677,177.072220 105.374756,178.977554 104.983688,181.470810 
	C102.071579,182.683090 99.840210,182.397903 99.998238,177.855133 
	C100.044533,176.524231 99.873627,175.175995 100.019760,173.859848 
	C101.656403,159.119843 102.785492,144.295334 105.156609,129.672821 
	C107.575356,114.756638 110.891411,99.958237 114.489899,85.273743 
	C116.092506,78.733902 119.350075,72.599632 122.427933,64.840767 
	C120.353363,66.523254 119.405258,67.259712 118.492340,68.037476 
	C106.410881,78.330406 99.995941,92.346367 95.326462,106.770973 
	C88.152573,128.932037 83.256187,151.642975 84.861343,175.348404 
	C85.571053,185.829529 88.473755,195.300781 94.417427,203.725021 
	C98.092667,208.934097 104.210754,211.493118 110.167427,210.754822 
	C124.333450,208.999023 134.216278,199.809891 141.860443,188.645874 
	C147.719208,180.089401 152.663330,170.791779 157.072922,161.382629 
	C165.351334,143.718216 170.647812,125.159950 170.989822,105.458641 
	C171.096725,99.300926 171.265015,93.125732 170.941101,86.983009 
	C170.299530,74.816544 166.901154,63.543652 158.983383,53.976940 
	C155.630707,49.926033 149.597534,47.907009 144.809067,50.137318 
	C141.022171,51.901131 137.821503,54.923523 134.240128,57.472672 
	C137.272263,59.325478 139.501236,60.306664 141.189087,61.871521 
	C142.101425,62.717369 142.089462,64.560181 142.494492,65.953232 
	C140.995010,66.144775 139.482117,66.543777 138.001175,66.448135 
	C137.146484,66.392937 136.333344,65.555008 135.518875,65.041809 
	C132.494614,63.136230 130.001923,63.126873 128.044052,67.556313 
z"/>
<path fill="#FDFDFD" opacity="1.000000" stroke="none" 
	d="
M291.007599,70.880676 
	C283.183960,87.668442 273.602234,103.342415 260.155914,116.215309 
	C248.897156,126.993904 235.857422,135.016693 221.287445,138.177643 
	C228.677368,150.088135 235.951584,162.245377 243.674393,174.110626 
	C249.044739,182.361526 254.555710,190.611664 260.879730,198.124908 
	C266.920319,205.301376 274.538971,209.250992 284.116913,203.541428 
	C285.125916,202.939926 287.047302,203.868942 288.545380,204.087891 
	C288.112335,205.482025 288.090302,207.283386 287.178741,208.203430 
	C281.751678,213.681152 268.862701,213.715866 260.193695,205.847321 
	C249.626541,196.255920 242.739990,184.045395 235.135727,172.351364 
	C228.498627,162.144608 222.440399,151.561417 215.390320,139.930099 
	C210.351364,163.036743 205.622314,184.722229 200.886566,206.438461 
	C202.813309,206.740036 204.203552,206.957642 205.593796,207.175247 
	C204.582138,210.768402 204.069702,214.629486 202.346176,217.840561 
	C201.496841,219.422943 198.408829,219.803741 196.333847,220.728271 
	C195.590591,218.016602 193.822723,215.121582 194.269791,212.622864 
	C197.248962,195.971252 200.613327,179.386108 204.040146,162.818161 
	C205.569107,155.425903 207.532822,148.123581 209.191544,141.228104 
	C204.017365,139.408737 199.225830,137.765854 194.465668,136.036575 
	C190.802734,134.705902 188.960632,131.356216 190.318863,128.340912 
	C191.268082,126.233627 195.213486,124.022949 197.540924,124.290619 
	C202.453049,124.855553 207.181686,127.015900 212.093536,128.555527 
	C214.602036,117.649483 217.255142,105.618668 220.152206,93.646881 
	C223.659454,79.153557 227.369156,64.709183 231.005386,50.247177 
	C231.275513,49.172844 231.381180,47.870945 232.060806,47.133041 
	C232.905624,46.215759 234.268478,45.775578 235.407608,45.129349 
	C236.029449,46.510288 237.422226,48.064468 237.156708,49.245991 
	C233.561066,65.245827 229.770752,81.202431 225.954422,97.151985 
	C223.124603,108.978569 220.187073,120.779366 217.186661,133.044876 
	C228.371140,130.580353 238.293564,126.152771 247.192245,119.332825 
	C262.659180,107.478928 274.092682,92.187004 282.278900,74.879265 
	C288.680878,61.343880 292.767822,46.720306 298.083771,32.655994 
	C298.756805,30.875395 300.646881,29.554808 301.973114,28.021099 
	C302.641785,30.001448 304.295959,32.269760 303.815430,33.914291 
	C301.169189,42.970406 297.995575,51.872192 295.016449,60.831425 
	C294.313141,62.946407 293.661804,65.078682 292.974884,67.587631 
	C292.963226,67.972260 293.025452,67.910255 292.696228,68.010910 
	C291.884735,69.085419 291.402466,70.059258 290.950012,70.999573 
	C290.979858,70.966042 291.007599,70.880676 291.007599,70.880676 
z"/>
<path fill="#FDFDFD" opacity="1.000000" stroke="none" 
	d="
M292.921082,67.984680 
	C296.115387,65.971519 299.149078,63.457352 302.627197,62.014416 
	C312.060425,58.100967 321.583801,54.342419 331.280426,51.159077 
	C334.851135,49.986843 338.183990,49.839165 338.137146,44.934750 
	C338.127563,43.930676 339.647034,42.911987 341.073151,41.140415 
	C342.668121,43.160873 343.988037,44.832874 345.683411,46.980495 
	C356.139130,45.166546 368.088074,42.461002 380.187836,41.174232 
	C392.025940,39.915291 404.011749,35.531609 415.941956,39.504627 
	C416.068085,40.327240 416.194214,41.149857 416.320312,41.972473 
	C414.375671,42.648312 412.473419,43.720783 410.479309,43.933853 
	C399.748993,45.080418 388.924561,45.540085 378.269470,47.145359 
	C366.175812,48.967361 354.226654,51.748653 342.499878,54.056774 
	C339.595398,65.166443 336.773682,75.863045 334.005981,86.573616 
	C331.277008,97.134331 328.602722,107.709175 325.648499,119.280266 
	C331.690186,117.778831 337.120453,116.192421 342.648926,115.105385 
	C353.731659,112.926254 364.868469,111.022034 375.982086,108.999825 
	C378.599426,108.523575 380.841187,109.336441 380.824432,112.120918 
	C380.809540,114.596367 378.567505,114.753876 376.259460,115.122810 
	C364.946716,116.931137 353.679810,119.049805 342.438110,121.268456 
	C337.411621,122.260483 332.373932,123.441032 327.563660,125.158615 
	C325.723602,125.815643 323.543823,128.006546 323.151886,129.846390 
	C319.557495,146.718231 316.236755,163.650467 313.045532,180.604507 
	C312.292786,184.603638 311.708862,188.817429 312.135956,192.816208 
	C312.931915,200.268829 315.716583,200.582733 320.602386,197.624039 
	C326.794678,193.874176 332.894562,189.762909 338.313995,184.989716 
	C349.092102,175.496902 359.362213,165.428238 369.888855,155.647690 
	C371.052704,154.566330 372.519806,153.811386 373.783752,152.947784 
	C377.829163,154.627304 377.759674,157.567429 375.390869,159.941864 
	C371.661102,163.680420 367.284821,166.765732 363.282867,170.243408 
	C359.556244,173.481827 355.911530,176.818909 352.317596,180.204788 
	C343.066711,188.920181 333.963898,197.776917 322.250305,203.332809 
	C313.671387,207.401917 305.536469,202.690552 306.144684,193.071701 
	C306.851685,181.890320 308.278442,170.714310 310.116455,159.656250 
	C311.848877,149.233673 314.521667,138.967422 317.041321,127.440369 
	C308.034332,130.758835 299.631012,133.965042 291.128021,136.880737 
	C289.686676,137.374969 287.816986,136.620209 286.145203,136.442505 
	C287.061584,134.822723 287.602509,132.287582 288.955627,131.732590 
	C297.379059,128.277634 305.902008,125.008507 314.570618,122.236496 
	C317.961273,121.152260 319.306061,119.742966 320.158783,116.215508 
	C323.359772,102.973938 327.207855,89.890327 330.660583,76.707474 
	C332.430206,69.950706 333.876343,63.109211 335.754395,55.085495 
	C325.036926,59.425392 314.744110,63.164761 304.830780,67.728523 
	C294.977722,72.264549 294.707123,74.893326 302.099152,82.780930 
	C300.273712,86.240662 298.478973,87.104683 295.185822,83.832443 
	C291.576935,80.246452 289.719177,76.570160 291.356018,71.233734 
	C291.007599,70.880676 290.979858,70.966042 291.313324,71.306503 
	C292.106354,70.401390 292.565887,69.155823 293.025452,67.910255 
	C293.025452,67.910255 292.963226,67.972260 292.921082,67.984680 
z"/>
<path fill="#FCFCFC" opacity="1.000000" stroke="none" 
	d="
M577.012390,110.165146 
	C572.318970,132.131912 567.904175,153.728226 562.883545,175.182739 
	C558.974121,191.889008 554.346436,208.428375 549.920471,225.010544 
	C549.523926,226.496033 548.466187,227.961563 547.340759,229.048172 
	C546.381409,229.974426 544.484497,231.149902 543.713318,230.770401 
	C542.495605,230.171127 541.124207,228.359039 541.130005,227.066162 
	C541.153503,221.830765 541.261780,216.524887 542.159058,211.388321 
	C542.794983,207.748077 545.373047,208.268539 548.163513,210.966644 
	C560.596985,156.172455 572.947998,101.741943 585.355896,47.060738 
	C575.002441,50.553448 565.436462,53.652588 555.963745,57.014648 
	C547.675232,59.956440 539.441162,63.071148 531.309021,66.415840 
	C529.877808,67.004463 529.070679,69.104874 527.968994,70.502090 
	C527.315125,71.331306 526.349670,72.958107 526.036926,72.842270 
	C524.125427,72.134270 522.192383,71.231514 520.645447,69.939919 
	C520.155151,69.530556 520.402832,67.079720 521.031616,66.672188 
	C525.731018,63.626377 530.317139,60.065498 535.488464,58.151043 
	C551.846313,52.095284 568.333374,46.335068 584.973633,41.107296 
	C614.769226,31.746576 644.704773,22.829967 674.624146,13.868999 
	C675.853333,13.500871 677.512085,14.567197 678.970703,14.965206 
	C678.161377,16.328981 677.652344,18.491890 676.494080,18.927124 
	C668.854065,21.798033 661.135925,24.500149 653.326172,26.871771 
	C640.432739,30.787191 627.443115,34.384865 614.509338,38.168747 
	C608.054810,40.057068 601.596741,41.950336 595.226013,44.095703 
	C593.747681,44.593513 591.812927,45.910744 591.456909,47.222427 
	C588.610474,57.708687 585.901733,68.241478 583.530579,78.844925 
	C581.302856,88.806862 579.541443,98.872978 577.554749,108.889275 
	C577.494385,109.193428 577.210022,109.453163 577.012390,110.165146 
z"/>
<path fill="#FDFDFD" opacity="1.000000" stroke="none" 
	d="
M64.740280,75.628654 
	C66.472305,68.183449 67.974068,61.105061 69.466896,54.024788 
	C69.948982,51.738338 70.407600,49.446945 70.946556,46.818363 
	C51.376122,53.773838 32.257675,60.568672 13.139233,67.363503 
	C13.457464,67.752045 13.775696,68.140587 14.093928,68.529129 
	C13.592298,69.945511 13.462697,71.839386 12.463859,72.617622 
	C11.746693,73.176392 9.382375,72.693954 8.621653,71.871979 
	C7.486733,70.645676 6.080236,67.914085 6.611092,67.223640 
	C8.386576,64.914391 10.667996,62.411270 13.295466,61.434490 
	C30.399845,55.075825 47.589577,48.932411 64.866783,43.057964 
	C76.538986,39.089279 88.369690,35.574558 100.184151,32.039444 
	C116.152977,27.261263 132.183868,22.690844 148.166214,17.957283 
	C152.150330,16.777292 156.203217,15.635909 159.935532,13.867083 
	C162.435852,12.682129 164.102219,13.543328 164.518768,15.382952 
	C164.778214,16.528816 163.178238,18.963629 161.896820,19.444174 
	C155.447876,21.862589 148.867935,23.958590 142.261902,25.925741 
	C128.433777,30.043497 114.550308,33.975014 100.710510,38.054092 
	C94.718910,39.820030 88.884468,42.310097 82.788445,43.481140 
	C75.620163,44.858158 76.408836,50.991745 75.201912,55.363926 
	C72.165833,66.362274 70.086678,77.625099 67.633972,88.784111 
	C63.418137,107.964783 59.376274,127.185593 54.954056,146.318512 
	C50.065521,167.468994 44.925995,188.563110 39.688400,209.630219 
	C38.189014,215.661179 36.145687,221.579132 33.959675,227.401718 
	C33.404202,228.881256 31.346495,229.796814 29.979033,230.971512 
	C28.987103,229.286072 27.331028,227.672775 27.138514,225.900497 
	C26.709135,221.947678 26.828979,217.903091 27.099939,213.921417 
	C27.214951,212.231369 28.271317,210.605377 28.866356,209.038467 
	C30.853970,209.920929 32.157082,210.499496 33.800533,211.229156 
	C44.084229,165.938019 54.295383,120.966385 64.740280,75.628654 
z"/>
<path fill="#F5F5F5" opacity="1.000000" stroke="none" 
	d="
M803.473877,106.822998 
	C802.885193,101.195168 802.680603,95.358727 802.791260,89.239647 
	C803.356934,94.842796 803.607483,100.728600 803.473877,106.822998 
z"/>
<path fill="#000000" opacity="1.000000" stroke="none" 
	d="
M745.270752,72.305832 
	C739.205566,86.806244 735.335266,101.522278 732.992859,116.662590 
	C731.382690,127.069878 729.494324,137.438538 728.113770,147.875183 
	C727.338623,153.734695 727.373657,159.699326 726.986389,165.612839 
	C726.708313,169.860107 726.144165,174.100327 726.125671,178.345505 
	C726.120422,179.553604 727.448975,181.611343 728.400208,181.757858 
	C729.493225,181.926224 731.193848,180.653915 731.987244,179.546494 
	C732.752686,178.478134 732.952881,176.824936 732.965942,175.424606 
	C733.146851,156.022964 735.502441,136.876251 738.893188,117.784195 
	C741.942444,100.614594 745.898315,83.820244 753.961548,68.210068 
	C756.632568,63.038990 757.226013,62.970661 762.388306,65.600937 
	C764.059448,66.452408 766.470154,65.852303 768.542603,65.916183 
	C767.636780,64.055420 766.967957,62.011745 765.729858,60.407394 
	C765.063965,59.544529 763.213806,59.679699 762.294189,58.898335 
	C761.700745,58.394157 761.313660,56.547424 761.703003,56.146687 
	C772.020935,45.528091 781.603088,46.973736 789.123230,59.627525 
	C794.428955,68.555176 796.060730,78.426537 797.233093,88.707588 
	C798.876770,103.121025 796.977783,117.168808 793.728638,130.838409 
	C788.892212,151.186142 781.621216,170.856293 768.659912,187.735443 
	C761.663940,196.846207 754.135132,205.291794 742.510803,209.201218 
	C729.215637,213.672501 720.278687,206.033112 715.930908,196.215393 
	C711.948914,187.223892 711.069336,177.884354 710.901672,168.175583 
	C710.406982,139.520538 717.692871,112.813278 729.963501,87.213814 
	C734.043823,78.701378 739.757751,71.587929 747.933655,66.255981 
	C747.125732,68.167381 746.317749,70.078781 745.270752,72.305832 
z"/>
<path fill="#000000" opacity="1.000000" stroke="none" 
	d="
M615.321533,127.001236 
	C618.092834,127.235031 620.442200,127.468582 623.258667,127.748573 
	C622.425598,130.153122 621.831848,131.866760 621.017700,134.216614 
	C617.437256,132.528320 614.202515,131.003021 610.967712,129.477707 
	C611.051392,128.961121 611.135010,128.444534 611.218628,127.927948 
	C612.445679,127.618965 613.672668,127.309982 615.321533,127.001236 
z"/>
<path fill="#000000" opacity="1.000000" stroke="none" 
	d="
M840.558533,103.456299 
	C839.907715,101.834274 839.823547,99.838928 838.835022,99.159851 
	C837.500366,98.242935 835.482849,98.242188 833.736694,98.014938 
	C824.200378,96.773842 821.221924,92.536705 822.166748,83.567383 
	C823.412231,71.742607 829.849243,61.991257 836.813721,52.617493 
	C841.166870,46.758530 846.334534,42.049686 853.373535,38.778957 
	C856.453613,42.404755 855.494385,46.842781 854.658813,50.403294 
	C850.781372,66.926636 846.283875,83.304115 842.067444,99.748985 
	C841.744324,101.009331 841.880798,102.387527 841.441956,103.890541 
	C840.960999,103.936539 840.841614,103.802948 840.558533,103.456299 
z"/>
<path fill="#000000" opacity="1.000000" stroke="none" 
	d="
M128.302353,67.256546 
	C130.001923,63.126873 132.494614,63.136230 135.518875,65.041809 
	C136.333344,65.555008 137.146484,66.392937 138.001175,66.448135 
	C139.482117,66.543777 140.995010,66.144775 142.494492,65.953232 
	C142.089462,64.560181 142.101425,62.717369 141.189087,61.871521 
	C139.501236,60.306664 137.272263,59.325478 134.240128,57.472672 
	C137.821503,54.923523 141.022171,51.901131 144.809067,50.137318 
	C149.597534,47.907009 155.630707,49.926033 158.983383,53.976940 
	C166.901154,63.543652 170.299530,74.816544 170.941101,86.983009 
	C171.265015,93.125732 171.096725,99.300926 170.989822,105.458641 
	C170.647812,125.159950 165.351334,143.718216 157.072922,161.382629 
	C152.663330,170.791779 147.719208,180.089401 141.860443,188.645874 
	C134.216278,199.809891 124.333450,208.999023 110.167427,210.754822 
	C104.210754,211.493118 98.092667,208.934097 94.417427,203.725021 
	C88.473755,195.300781 85.571053,185.829529 84.861343,175.348404 
	C83.256187,151.642975 88.152573,128.932037 95.326462,106.770973 
	C99.995941,92.346367 106.410881,78.330406 118.492340,68.037476 
	C119.405258,67.259712 120.353363,66.523254 122.427933,64.840767 
	C119.350075,72.599632 116.092506,78.733902 114.489899,85.273743 
	C110.891411,99.958237 107.575356,114.756638 105.156609,129.672821 
	C102.785492,144.295334 101.656403,159.119843 100.019760,173.859848 
	C99.873627,175.175995 100.044533,176.524231 99.998238,177.855133 
	C99.840210,182.397903 102.071579,182.683090 104.983688,181.470810 
	C105.374756,178.977554 105.725677,177.072220 105.964806,175.152969 
	C106.663940,169.541870 107.302582,163.923264 107.993690,158.311127 
	C109.643089,144.917191 111.334976,131.528458 112.960930,118.131699 
	C114.598015,104.643242 118.191467,91.656044 123.008888,78.995903 
	C124.488647,75.107124 126.354813,71.365379 128.302353,67.256546 
z"/>
<path fill="#000000" opacity="1.000000" stroke="none" 
	d="
M292.696228,68.010910 
	C292.565887,69.155823 292.106354,70.401390 291.283508,71.340027 
	C291.402466,70.059258 291.884735,69.085419 292.696228,68.010910 
z"/>
</svg>